<svg xmlns="http://www.w3.org/2000/svg" xmlns:xlink="http://www.w3.org/1999/xlink" width="183" zoomAndPan="magnify" viewBox="0 0 137.25 30.000001" height="40" preserveAspectRatio="xMidYMid meet" version="1.0"><defs><g/><clipPath id="7690cc3822"><path d="M 33 0.507812 L 59 0.507812 L 59 28 L 33 28 Z M 33 0.507812 " clip-rule="nonzero"/></clipPath></defs><g clip-path="url(#7690cc3822)"><path fill="#ffffff" d="M 33.960938 11.554688 C 33.855469 11.058594 33.496094 9.132812 34.609375 7.21875 C 36.1875 4.496094 39.316406 4.238281 39.589844 4.21875 C 39.800781 3.742188 40.179688 3.054688 40.863281 2.445312 C 41.402344 1.960938 42.242188 1.429688 44.683594 1.054688 C 46.53125 0.769531 48.210938 0.511719 50.488281 0.90625 C 52.96875 1.332031 54.808594 2.300781 55.878906 2.972656 C 55.671875 2.929688 54.980469 2.804688 54.355469 3.203125 C 54.175781 3.320312 54.039062 3.453125 53.941406 3.574219 C 54.667969 4.082031 55.667969 4.90625 56.570312 6.15625 C 57.808594 7.871094 58.269531 9.554688 58.460938 10.542969 C 58.328125 10.328125 58.03125 9.917969 57.492188 9.617188 C 57.089844 9.394531 56.710938 9.320312 56.476562 9.296875 C 56.972656 10.011719 57.308594 10.703125 57.539062 11.324219 C 59.199219 15.808594 56.738281 20.246094 56.0625 21.382812 C 55.96875 20.984375 55.863281 20.566406 55.738281 20.136719 C 55.582031 19.582031 55.410156 19.058594 55.234375 18.570312 C 54.941406 19.804688 54.15625 22.339844 51.910156 24.523438 C 47.804688 28.511719 42.292969 27.941406 41.484375 27.84375 C 42.628906 27.851562 46.226562 27.726562 49.28125 25.074219 C 50.011719 24.441406 51.511719 23.105469 52.234375 20.832031 C 53.230469 17.695312 52.261719 14.328125 50.386719 12.109375 C 48.832031 10.265625 46.964844 9.585938 45.40625 9.019531 C 44.964844 8.859375 41.882812 7.777344 38.253906 8.417969 C 36.566406 8.71875 35.738281 9.21875 35.160156 9.757812 C 34.496094 10.382812 34.144531 11.085938 33.960938 11.554688 Z M 33.960938 11.554688 " fill-opacity="1" fill-rule="nonzero"/></g><path fill="#5271ff" d="M 37.863281 27.046875 C 38.621094 27.273438 39.410156 27.386719 40.203125 27.394531 L 41.5625 27.402344 C 43.191406 27.402344 46.324219 27.054688 48.988281 24.742188 C 49.625 24.191406 51.109375 22.902344 51.8125 20.695312 C 52.683594 17.953125 51.992188 14.695312 50.050781 12.394531 C 48.570312 10.640625 46.808594 10 45.253906 9.433594 C 44.753906 9.253906 42.941406 8.660156 40.597656 8.660156 C 39.824219 8.660156 39.0625 8.726562 38.328125 8.855469 C 37.277344 9.042969 36.597656 9.308594 36.132812 9.582031 C 37.957031 9.300781 40.339844 9.226562 42.957031 9.941406 C 44.746094 10.429688 46.84375 11.003906 48.542969 12.941406 C 49.152344 13.636719 51.269531 16.289062 50.617188 19.539062 C 49.996094 22.652344 47.0625 25.15625 43.328125 25.628906 C 44 25.503906 46.238281 24.992188 47.664062 23 C 49.371094 20.617188 49.226562 17.085938 47.203125 14.277344 C 47.878906 16.488281 47.394531 17.988281 47.15625 18.570312 C 45.949219 21.546875 41.949219 23.410156 37.304688 22.730469 C 38.261719 22.855469 40.695312 22.976562 42.914062 21.339844 C 44.839844 19.914062 45.488281 17.984375 45.679688 17.324219 C 44.976562 17.980469 43.109375 19.546875 40.238281 20 C 39.984375 20.039062 36.058594 20.601562 32.808594 18.292969 C 29.164062 15.707031 27.621094 10.414062 29.164062 5.1875 C 28.523438 6.378906 27.664062 8.328125 27.363281 10.863281 C 26.503906 18.117188 30.824219 24.90625 37.851562 27.042969 C 37.855469 27.042969 37.859375 27.042969 37.863281 27.046875 Z M 37.863281 27.046875 " fill-opacity="1" fill-rule="nonzero"/><g fill="#ffffff" fill-opacity="1"><g transform="translate(59.203916, 18.492478)"><g><path d="M 1.109375 0 L 1.109375 -8.78125 L 2.96875 -8.78125 L 2.96875 0 Z M 1.109375 0 "/></g></g></g><g fill="#ffffff" fill-opacity="1"><g transform="translate(63.271793, 18.492478)"><g><path d="M 8.890625 0 L 6.53125 0 L 2.703125 -6.640625 L 2.65625 -6.640625 C 2.726562 -5.460938 2.765625 -4.625 2.765625 -4.125 L 2.765625 0 L 1.109375 0 L 1.109375 -8.78125 L 3.453125 -8.78125 L 7.265625 -2.203125 L 7.3125 -2.203125 C 7.25 -3.347656 7.21875 -4.15625 7.21875 -4.625 L 7.21875 -8.78125 L 8.890625 -8.78125 Z M 8.890625 0 "/></g></g></g><g fill="#ffffff" fill-opacity="1"><g transform="translate(73.261508, 18.492478)"><g><path d="M 2.9375 0 L 1.109375 0 L 1.109375 -8.78125 L 6.140625 -8.78125 L 6.140625 -7.25 L 2.9375 -7.25 L 2.9375 -4.984375 L 5.921875 -4.984375 L 5.921875 -3.46875 L 2.9375 -3.46875 Z M 2.9375 0 "/></g></g></g><g fill="#ffffff" fill-opacity="1"><g transform="translate(80.005304, 18.492478)"><g><path d="M 1.109375 0 L 1.109375 -8.78125 L 2.96875 -8.78125 L 2.96875 0 Z M 1.109375 0 "/></g></g></g><g fill="#ffffff" fill-opacity="1"><g transform="translate(84.073181, 18.492478)"><g><path d="M 8.890625 0 L 6.53125 0 L 2.703125 -6.640625 L 2.65625 -6.640625 C 2.726562 -5.460938 2.765625 -4.625 2.765625 -4.125 L 2.765625 0 L 1.109375 0 L 1.109375 -8.78125 L 3.453125 -8.78125 L 7.265625 -2.203125 L 7.3125 -2.203125 C 7.25 -3.347656 7.21875 -4.15625 7.21875 -4.625 L 7.21875 -8.78125 L 8.890625 -8.78125 Z M 8.890625 0 "/></g></g></g><g fill="#ffffff" fill-opacity="1"><g transform="translate(94.062896, 18.492478)"><g><path d="M 1.109375 0 L 1.109375 -8.78125 L 2.96875 -8.78125 L 2.96875 0 Z M 1.109375 0 "/></g></g></g><g fill="#ffffff" fill-opacity="1"><g transform="translate(98.130773, 18.492478)"><g><path d="M 8.203125 0 L 6.078125 0 L 4.03125 -3.328125 L 2 0 L 0 0 L 2.90625 -4.53125 L 0.1875 -8.78125 L 2.234375 -8.78125 L 4.125 -5.625 L 5.984375 -8.78125 L 7.984375 -8.78125 L 5.234375 -4.421875 Z M 8.203125 0 "/></g></g></g></svg>