<svg xmlns="http://www.w3.org/2000/svg" xmlns:xlink="http://www.w3.org/1999/xlink" width="1080" zoomAndPan="magnify" viewBox="0 0 810 809.999993" height="1080" preserveAspectRatio="xMidYMid meet" version="1.0"><defs><clipPath id="5bf200b747"><path d="M 21.109375 21.109375 L 789 21.109375 L 789 789 L 21.109375 789 Z M 21.109375 21.109375 " clip-rule="nonzero"/></clipPath></defs><g clip-path="url(#5bf200b747)"><path fill="#8b90ad" d="M 788.886719 405 C 788.886719 617.011719 617.011719 788.886719 405 788.886719 C 192.984375 788.886719 21.109375 617.011719 21.109375 405 C 21.109375 192.984375 192.984375 21.109375 405 21.109375 C 617.011719 21.109375 788.886719 192.984375 788.886719 405 " fill-opacity="1" fill-rule="nonzero"/></g><path fill="#ffffff" d="M 418.1875 537.425781 C 454.953125 533.203125 473.335938 512.605469 473.335938 475.632812 C 473.335938 460.492188 469.597656 448.851562 462.121094 440.699219 C 454.632812 432.546875 439.992188 425.847656 418.1875 420.613281 Z M 392.636719 377.8125 L 392.636719 272.351562 C 359.050781 277.738281 342.257812 295.570312 342.257812 325.84375 C 342.257812 342.15625 346.917969 354.011719 356.226562 361.4375 C 365.535156 368.863281 377.675781 374.324219 392.636719 377.8125 Z M 418.1875 382.617188 C 457.65625 390.042969 484.480469 400.851562 498.648438 415.039062 C 512.8125 429.238281 519.894531 448.558594 519.894531 473.011719 C 519.894531 498.488281 510.902344 520.652344 492.914062 539.503906 C 474.925781 558.355469 450.019531 568.578125 418.1875 570.179688 L 418.1875 592.292969 C 418.1875 598.773438 412.933594 604.019531 406.457031 604.019531 L 404.367188 604.019531 C 397.890625 604.019531 392.636719 598.773438 392.636719 592.292969 L 392.636719 570.617188 C 333.113281 564.613281 298.996094 537.273438 290.289062 488.597656 C 288.996094 481.390625 294.511719 474.765625 301.835938 474.765625 L 324.679688 474.765625 C 330.308594 474.765625 335.15625 478.753906 336.199219 484.277344 C 341.980469 514.8125 360.789062 532.53125 392.636719 537.425781 L 392.636719 415.367188 C 328.171875 403.578125 295.9375 374.832031 295.9375 329.121094 C 295.9375 303.359375 304.652344 282.617188 322.085938 266.894531 C 339.515625 251.171875 363.027344 242.078125 392.636719 239.597656 L 392.636719 217.703125 C 392.636719 211.222656 397.890625 205.976562 404.367188 205.976562 L 406.457031 205.976562 C 412.933594 205.976562 418.1875 211.222656 418.1875 217.703125 L 418.1875 239.597656 C 468.96875 243.125 499.230469 264.710938 508.976562 304.359375 C 510.796875 311.738281 505.175781 318.855469 497.574219 318.855469 L 474.960938 318.855469 C 469.484375 318.855469 464.765625 315.058594 463.523438 309.722656 C 458.550781 288.308594 443.441406 276 418.1875 272.789062 L 418.1875 382.617188 " fill-opacity="1" fill-rule="nonzero"/><path fill="#ffffff" d="M 673.011719 291.773438 C 658.359375 257.136719 637.390625 226.027344 610.679688 199.316406 C 583.96875 172.609375 552.859375 151.636719 518.222656 136.984375 C 498.480469 128.632812 478.0625 122.550781 457.148438 118.773438 C 450.050781 117.488281 443.519531 122.953125 443.519531 130.167969 C 443.519531 135.777344 447.550781 140.558594 453.0625 141.558594 C 577.851562 164.269531 672.761719 273.757812 672.761719 405 C 672.761719 536.238281 577.851562 645.726562 453.0625 668.4375 C 447.550781 669.4375 443.519531 674.21875 443.519531 679.828125 C 443.519531 687.035156 450.050781 692.507812 457.148438 691.222656 C 478.0625 687.445312 498.480469 681.363281 518.222656 673.011719 C 552.859375 658.359375 583.96875 637.390625 610.679688 610.679688 C 637.390625 583.96875 658.359375 552.859375 673.011719 518.222656 C 688.183594 482.359375 695.871094 444.261719 695.871094 405 C 695.871094 365.734375 688.183594 327.636719 673.011719 291.773438 " fill-opacity="1" fill-rule="nonzero"/><path fill="#ffffff" d="M 137.234375 405 C 137.234375 273.757812 232.144531 164.269531 356.933594 141.558594 C 362.453125 140.558594 366.476562 135.777344 366.476562 130.167969 C 366.476562 122.953125 359.945312 117.488281 352.847656 118.773438 C 331.933594 122.550781 311.515625 128.632812 291.773438 136.984375 C 257.136719 151.636719 226.027344 172.609375 199.316406 199.316406 C 172.609375 226.027344 151.636719 257.136719 136.984375 291.773438 C 121.8125 327.636719 114.125 365.734375 114.125 405 C 114.125 444.261719 121.8125 482.359375 136.984375 518.222656 C 151.636719 552.859375 172.609375 583.96875 199.316406 610.679688 C 226.027344 637.390625 257.136719 658.359375 291.773438 673.011719 C 311.515625 681.363281 331.933594 687.445312 352.847656 691.222656 C 359.945312 692.507812 366.476562 687.035156 366.476562 679.828125 C 366.476562 674.21875 362.453125 669.4375 356.933594 668.4375 C 232.144531 645.726562 137.234375 536.238281 137.234375 405 " fill-opacity="1" fill-rule="nonzero"/></svg>