<svg xmlns="http://www.w3.org/2000/svg" xmlns:xlink="http://www.w3.org/1999/xlink" width="500" zoomAndPan="magnify" viewBox="0 0 375 374.999991" height="500" preserveAspectRatio="xMidYMid meet" version="1.0"><defs><clipPath id="f7810dcec3"><path d="M 72.949219 47.347656 L 301.699219 47.347656 L 301.699219 343.597656 L 72.949219 343.597656 Z M 72.949219 47.347656 " clip-rule="nonzero"/></clipPath></defs><g clip-path="url(#f7810dcec3)"><path fill="#ffffff" d="M 302.050781 320.789062 L 302.050781 70.503906 C 302.050781 64.136719 299.449219 58.34375 295.253906 54.148438 C 291.054688 49.953125 285.265625 47.347656 278.894531 47.347656 L 96.121094 47.347656 C 89.75 47.347656 83.957031 49.953125 79.761719 54.148438 C 75.570312 58.34375 72.964844 64.136719 72.964844 70.503906 L 72.964844 320.789062 C 72.964844 327.160156 75.570312 332.953125 79.761719 337.148438 C 83.957031 341.34375 89.75 343.949219 96.121094 343.949219 L 278.894531 343.949219 C 285.265625 343.949219 291.054688 341.34375 295.253906 337.148438 C 299.449219 332.953125 302.050781 327.160156 302.050781 320.789062 Z M 106.828125 164.171875 L 130.085938 164.171875 C 134.078125 164.171875 137.710938 165.59375 140.335938 167.875 C 142.96875 170.160156 144.597656 173.316406 144.597656 176.789062 L 144.597656 195.386719 C 144.597656 198.863281 142.96875 202.015625 140.335938 204.300781 C 137.710938 206.585938 134.078125 208.003906 130.085938 208.003906 L 106.828125 208.003906 C 102.828125 208.003906 99.199219 206.582031 96.574219 204.300781 C 93.945312 202.015625 92.3125 198.863281 92.3125 195.386719 L 92.3125 176.789062 C 92.3125 173.316406 93.945312 170.160156 96.574219 167.875 C 99.199219 165.59375 102.828125 164.171875 106.828125 164.171875 Z M 173.910156 164.171875 L 197.167969 164.171875 C 201.164062 164.171875 204.789062 165.59375 207.417969 167.875 C 210.050781 170.160156 211.679688 173.316406 211.679688 176.789062 L 211.679688 195.386719 C 211.679688 198.863281 210.050781 202.015625 207.417969 204.300781 C 204.789062 206.582031 201.164062 208.003906 197.167969 208.003906 L 173.910156 208.003906 C 169.910156 208.003906 166.28125 206.582031 163.652344 204.300781 C 161.027344 202.015625 159.394531 198.863281 159.394531 195.386719 L 159.394531 176.789062 C 159.394531 173.316406 161.027344 170.160156 163.652344 167.875 C 166.28125 165.59375 169.910156 164.171875 173.910156 164.171875 Z M 240.992188 164.171875 L 264.246094 164.171875 C 268.242188 164.171875 271.871094 165.59375 274.5 167.875 C 277.128906 170.160156 278.761719 173.316406 278.761719 176.789062 L 278.761719 195.386719 C 278.761719 198.863281 277.128906 202.015625 274.5 204.300781 C 271.871094 206.582031 268.242188 208.003906 264.246094 208.003906 L 240.992188 208.003906 C 236.992188 208.003906 233.363281 206.585938 230.734375 204.300781 C 228.109375 202.015625 226.472656 198.863281 226.472656 195.386719 L 226.472656 176.789062 C 226.472656 173.316406 228.109375 170.160156 230.734375 167.875 C 233.363281 165.59375 236.992188 164.171875 240.992188 164.171875 Z M 106.828125 221.792969 L 130.085938 221.792969 C 134.078125 221.792969 137.710938 223.210938 140.335938 225.496094 C 142.96875 227.78125 144.597656 230.933594 144.597656 234.40625 L 144.597656 253.007812 C 144.597656 256.480469 142.96875 259.636719 140.335938 261.921875 C 137.710938 264.203125 134.078125 265.621094 130.085938 265.621094 L 106.828125 265.621094 C 102.828125 265.621094 99.199219 264.203125 96.574219 261.921875 C 93.945312 259.636719 92.3125 256.480469 92.3125 253.007812 L 92.3125 234.40625 C 92.3125 230.933594 93.945312 227.78125 96.574219 225.496094 C 99.199219 223.210938 102.828125 221.792969 106.828125 221.792969 Z M 173.910156 221.792969 L 197.167969 221.792969 C 201.164062 221.792969 204.789062 223.210938 207.417969 225.496094 C 210.050781 227.78125 211.679688 230.933594 211.679688 234.40625 L 211.679688 253.007812 C 211.679688 256.480469 210.050781 259.636719 207.417969 261.921875 C 204.789062 264.203125 201.164062 265.621094 197.167969 265.621094 L 173.910156 265.621094 C 169.910156 265.621094 166.28125 264.203125 163.652344 261.921875 C 161.027344 259.636719 159.394531 256.480469 159.394531 253.007812 L 159.394531 234.40625 C 159.394531 230.933594 161.027344 227.78125 163.652344 225.496094 C 166.28125 223.210938 169.910156 221.792969 173.910156 221.792969 Z M 240.992188 221.792969 L 264.246094 221.792969 C 268.242188 221.792969 271.871094 223.210938 274.5 225.496094 C 277.128906 227.78125 278.761719 230.933594 278.761719 234.40625 L 278.761719 310.628906 C 278.761719 314.101562 277.128906 317.257812 274.5 319.539062 C 271.871094 321.824219 268.242188 323.242188 264.246094 323.242188 L 240.992188 323.242188 C 236.992188 323.242188 233.363281 321.824219 230.734375 319.539062 C 228.109375 317.257812 226.472656 314.101562 226.472656 310.628906 L 226.472656 234.40625 C 226.472656 230.933594 228.109375 227.78125 230.734375 225.496094 C 233.363281 223.210938 236.992188 221.792969 240.992188 221.792969 Z M 106.828125 279.414062 L 130.085938 279.414062 C 134.078125 279.414062 137.710938 280.832031 140.335938 283.117188 C 142.96875 285.398438 144.597656 288.554688 144.597656 292.027344 L 144.597656 310.628906 C 144.597656 314.101562 142.96875 317.257812 140.335938 319.539062 C 137.710938 321.824219 134.078125 323.242188 130.085938 323.242188 L 106.828125 323.242188 C 102.828125 323.242188 99.199219 321.824219 96.574219 319.539062 C 93.945312 317.257812 92.3125 314.101562 92.3125 310.628906 L 92.3125 292.027344 C 92.3125 288.554688 93.945312 285.398438 96.574219 283.117188 C 99.199219 280.832031 102.828125 279.414062 106.828125 279.414062 Z M 173.910156 279.414062 L 197.167969 279.414062 C 201.164062 279.414062 204.789062 280.832031 207.417969 283.117188 C 210.050781 285.398438 211.679688 288.554688 211.679688 292.027344 L 211.679688 310.628906 C 211.679688 314.101562 210.050781 317.257812 207.417969 319.539062 C 204.789062 321.824219 201.164062 323.242188 197.167969 323.242188 L 173.910156 323.242188 C 169.910156 323.242188 166.28125 321.824219 163.652344 319.539062 C 161.027344 317.257812 159.394531 314.101562 159.394531 310.628906 L 159.394531 292.027344 C 159.394531 288.554688 161.027344 285.398438 163.652344 283.117188 C 166.28125 280.832031 169.910156 279.414062 173.910156 279.414062 Z M 279.308594 130.796875 C 279.308594 133.6875 278.042969 136.3125 276.003906 138.226562 C 273.960938 140.132812 271.152344 141.316406 268.066406 141.316406 L 106.949219 141.316406 C 103.863281 141.316406 101.054688 140.132812 99.019531 138.226562 C 96.976562 136.3125 95.710938 133.6875 95.710938 130.796875 L 95.710938 84.542969 C 95.710938 81.652344 96.976562 79.023438 99.019531 77.113281 C 101.054688 75.203125 103.863281 74.019531 106.949219 74.019531 L 268.066406 74.019531 C 271.152344 74.019531 273.960938 75.203125 276.003906 77.113281 C 278.042969 79.023438 279.308594 81.652344 279.308594 84.542969 L 279.308594 130.796875 " fill-opacity="1" fill-rule="evenodd"/></g></svg>