<svg xmlns="http://www.w3.org/2000/svg" xmlns:xlink="http://www.w3.org/1999/xlink" width="500" zoomAndPan="magnify" viewBox="0 0 375 374.999991" height="500" preserveAspectRatio="xMidYMid meet" version="1.0"><defs><clipPath id="7291265ac4"><path d="M 93.90625 81.578125 L 281.40625 81.578125 L 281.40625 269 L 93.90625 269 Z M 93.90625 81.578125 " clip-rule="nonzero"/></clipPath></defs><g clip-path="url(#7291265ac4)"><path fill="#ffffff" d="M 187.5 81.578125 C 135.890625 81.578125 93.90625 123.5625 93.90625 175.167969 C 93.90625 226.773438 135.890625 268.761719 187.5 268.761719 C 239.105469 268.761719 281.089844 226.773438 281.089844 175.167969 C 281.089844 123.5625 239.105469 81.578125 187.5 81.578125 Z M 187.5 256.28125 C 142.773438 256.28125 106.386719 219.894531 106.386719 175.167969 C 106.386719 130.441406 142.773438 94.054688 187.5 94.054688 C 232.222656 94.054688 268.609375 130.441406 268.609375 175.167969 C 268.609375 219.894531 232.222656 256.28125 187.5 256.28125 Z M 187.5 256.28125 " fill-opacity="1" fill-rule="nonzero"/></g><path fill="#ffffff" d="M 177.863281 133.53125 C 175.425781 131.09375 171.476562 131.09375 169.039062 133.53125 C 166.601562 135.96875 166.601562 139.917969 169.039062 142.355469 L 201.851562 175.167969 L 169.039062 207.984375 C 166.601562 210.417969 166.601562 214.371094 169.039062 216.804688 C 170.253906 218.023438 171.851562 218.632812 173.449219 218.632812 C 175.046875 218.632812 176.644531 218.023438 177.863281 216.804688 L 215.085938 179.578125 C 217.523438 177.144531 217.523438 173.191406 215.085938 170.753906 Z M 177.863281 133.53125 " fill-opacity="1" fill-rule="nonzero"/></svg>