<svg xmlns="http://www.w3.org/2000/svg" xmlns:xlink="http://www.w3.org/1999/xlink" width="500" zoomAndPan="magnify" viewBox="0 0 375 374.999991" height="500" preserveAspectRatio="xMidYMid meet" version="1.0"><defs><clipPath id="c2c6fda635"><path d="M 73.386719 61 L 301.386719 61 L 301.386719 345.984375 L 73.386719 345.984375 Z M 73.386719 61 " clip-rule="nonzero"/></clipPath></defs><g clip-path="url(#c2c6fda635)"><path fill="#ffffff" d="M 231.210938 61.242188 L 111.660156 61.242188 C 90.53125 61.242188 73.339844 78.433594 73.339844 99.5625 L 73.339844 307.683594 C 73.339844 328.8125 90.53125 346.003906 111.660156 346.003906 L 263.34375 346.003906 C 284.46875 346.003906 301.660156 328.816406 301.660156 307.683594 L 301.660156 139.984375 Z M 236.792969 97.777344 L 268.976562 133.746094 L 236.792969 133.746094 Z M 263.339844 325.804688 L 111.660156 325.804688 C 101.664062 325.804688 93.535156 317.675781 93.535156 307.683594 L 93.535156 99.5625 C 93.535156 89.570312 101.664062 81.441406 111.660156 81.441406 L 216.597656 81.441406 L 216.597656 153.9375 L 281.460938 153.9375 L 281.460938 307.683594 C 281.457031 317.675781 273.328125 325.804688 263.339844 325.804688 Z M 263.339844 325.804688 " fill-opacity="1" fill-rule="nonzero"/></g><path fill="#ffffff" d="M 115.214844 265.394531 L 259.777344 265.394531 L 259.777344 285.589844 L 115.214844 285.589844 Z M 115.214844 265.394531 " fill-opacity="1" fill-rule="nonzero"/><path fill="#ffffff" d="M 115.214844 221.507812 L 259.777344 221.507812 L 259.777344 241.703125 L 115.214844 241.703125 Z M 115.214844 221.507812 " fill-opacity="1" fill-rule="nonzero"/><path fill="#ffffff" d="M 115.214844 177.625 L 259.777344 177.625 L 259.777344 197.824219 L 115.214844 197.824219 Z M 115.214844 177.625 " fill-opacity="1" fill-rule="nonzero"/></svg>