<svg xmlns="http://www.w3.org/2000/svg" xmlns:xlink="http://www.w3.org/1999/xlink" width="500" zoomAndPan="magnify" viewBox="0 0 375 374.999991" height="500" preserveAspectRatio="xMidYMid meet" version="1.0"><defs><clipPath id="9fb1018663"><path d="M 77.390625 92.128906 L 297.890625 92.128906 L 297.890625 311.878906 L 77.390625 311.878906 Z M 77.390625 92.128906 " clip-rule="nonzero"/></clipPath></defs><g clip-path="url(#9fb1018663)"><path fill="#ffffff" d="M 187.546875 92.199219 C 126.699219 92.199219 77.390625 141.507812 77.390625 202.359375 C 77.390625 257.007812 117.253906 302.40625 169.425781 310.988281 L 169.425781 236.3125 L 141.386719 236.3125 L 141.386719 203.597656 L 169.425781 203.597656 L 169.425781 179.847656 C 169.425781 154.097656 190.3125 136.644531 216.0625 136.644531 C 227.507812 136.644531 234.660156 138.363281 234.660156 138.363281 L 234.660156 165.828125 L 216.0625 165.828125 C 208.335938 165.828125 202.042969 172.125 202.042969 179.847656 L 202.042969 203.597656 L 232.085938 203.597656 L 227.890625 236.3125 L 202.042969 236.3125 L 202.042969 311.464844 C 255.929688 304.3125 297.511719 258.152344 297.511719 202.359375 C 297.609375 141.507812 248.300781 92.199219 187.546875 92.199219 Z M 187.546875 92.199219 " fill-opacity="1" fill-rule="nonzero"/></g></svg>