<svg xmlns="http://www.w3.org/2000/svg" xmlns:xlink="http://www.w3.org/1999/xlink" width="500" zoomAndPan="magnify" viewBox="0 0 375 374.999991" height="500" preserveAspectRatio="xMidYMid meet" version="1.0"><defs><clipPath id="e97ba380fc"><path d="M 63.375 70.566406 L 311.625 70.566406 L 311.625 337.566406 L 63.375 337.566406 Z M 63.375 70.566406 " clip-rule="nonzero"/></clipPath><clipPath id="6c55a7d7d1"><path d="M 63.375 70.566406 L 183 70.566406 L 183 197 L 63.375 197 Z M 63.375 70.566406 " clip-rule="nonzero"/></clipPath><clipPath id="01d3a352e6"><path d="M 192 211 L 311.625 211 L 311.625 337.566406 L 192 337.566406 Z M 192 211 " clip-rule="nonzero"/></clipPath></defs><g clip-path="url(#e97ba380fc)"><path fill="#ffffff" d="M 300.480469 77.015625 L 226.070312 198.257812 L 177.324219 270.015625 L 175.171875 273.441406 L 175.296875 273.652344 L 172.925781 277.601562 L 172.605469 277.925781 L 170.796875 279.753906 L 170.796875 281.175781 L 140.960938 331.039062 L 74.523438 331.039062 L 148.964844 209.75 L 197.503906 138.023438 L 199.644531 134.589844 L 199.519531 134.378906 L 207.386719 121.160156 L 207.710938 120.847656 L 209.632812 119.003906 L 209.632812 117.402344 L 233.71875 77.019531 L 300.480469 77.019531 M 311.625 70.777344 L 230.171875 70.777344 L 203.394531 115.683594 L 203.394531 116.34375 L 202.457031 117.242188 L 192.25 134.386719 L 192.335938 134.53125 L 143.714844 206.371094 L 63.375 337.277344 L 144.496094 337.277344 L 177.03125 282.894531 L 177.03125 282.320312 L 177.882812 281.457031 L 182.558594 273.65625 L 182.472656 273.519531 L 231.300781 201.640625 Z M 311.625 70.777344 " fill-opacity="1" fill-rule="nonzero"/></g><g clip-path="url(#6c55a7d7d1)"><path fill="#ffffff" d="M 140.960938 77.015625 L 175.089844 134.042969 L 140.707031 184.84375 L 109.363281 133.777344 L 109.304688 133.679688 L 109.242188 133.585938 L 109.03125 133.257812 L 74.519531 77.015625 L 140.960938 77.015625 M 144.496094 70.777344 L 63.375 70.777344 L 103.773438 136.621094 L 104.050781 137.039062 L 140.449219 196.351562 L 182.480469 134.25 Z M 144.496094 70.777344 " fill-opacity="1" fill-rule="nonzero"/></g><g clip-path="url(#01d3a352e6)"><path fill="#ffffff" d="M 234.277344 223.179688 L 300.480469 331.035156 L 233.714844 331.035156 L 199.726562 274.027344 L 234.277344 223.179688 M 234.542969 211.691406 L 192.339844 273.816406 L 230.171875 337.28125 L 311.625 337.28125 Z M 234.542969 211.691406 " fill-opacity="1" fill-rule="nonzero"/></g></svg>