<svg xmlns="http://www.w3.org/2000/svg" xmlns:xlink="http://www.w3.org/1999/xlink" width="500" zoomAndPan="magnify" viewBox="0 0 375 374.999991" height="500" preserveAspectRatio="xMidYMid meet" version="1.0"><defs><clipPath id="fb691bf509"><path d="M 62.535156 93 L 311 93 L 311 306 L 62.535156 306 Z M 62.535156 93 " clip-rule="nonzero"/></clipPath><clipPath id="c93075edc4"><path d="M 62.535156 93 L 311 93 L 311 221 L 62.535156 221 Z M 62.535156 93 " clip-rule="nonzero"/></clipPath></defs><g clip-path="url(#fb691bf509)"><path fill="#ffffff" d="M 305.789062 96.683594 C 309.214844 99.589844 310.742188 104.160156 309.75 108.546875 L 267.492188 295.6875 C 266.570312 299.769531 263.601562 303.082031 259.644531 304.445312 C 255.6875 305.808594 251.308594 305.023438 248.070312 302.371094 L 192.847656 257.191406 L 169.679688 298.890625 C 167.308594 303.160156 162.601562 305.582031 157.75 305.023438 C 152.898438 304.464844 148.859375 301.042969 147.515625 296.347656 L 125.390625 218.910156 L 72.242188 208.277344 C 67.011719 207.230469 63.089844 202.878906 62.589844 197.570312 C 62.089844 192.261719 65.132812 187.253906 70.074219 185.25 L 293.4375 94.699219 C 297.601562 93.007812 302.359375 93.773438 305.789062 96.683594 Z M 116.46875 192.5 L 137.347656 196.671875 C 141.78125 197.558594 145.347656 200.847656 146.589844 205.195312 L 162.726562 261.683594 L 178.757812 232.832031 C 180.496094 229.707031 183.527344 227.511719 187.042969 226.839844 C 190.554688 226.167969 194.1875 227.085938 196.957031 229.351562 L 248.242188 271.3125 L 281.109375 125.75 Z M 116.46875 192.5 " fill-opacity="1" fill-rule="evenodd"/></g><g clip-path="url(#c93075edc4)"><path fill="#ffffff" d="M 304.40625 116.105469 C 309.699219 112.769531 311.574219 105.949219 308.71875 100.378906 C 305.867188 94.8125 299.234375 92.347656 293.4375 94.699219 L 70.074219 185.25 C 65.132812 187.253906 62.089844 192.261719 62.589844 197.570312 C 63.089844 202.878906 67.011719 207.234375 72.242188 208.277344 L 132.609375 220.351562 C 135.644531 220.957031 138.792969 220.378906 141.410156 218.730469 Z M 304.40625 116.105469 " fill-opacity="1" fill-rule="evenodd"/></g><path fill="#ffffff" d="M 309.75 108.546875 C 310.984375 103.085938 308.300781 97.492188 303.269531 95.035156 C 298.234375 92.582031 292.175781 93.90625 288.628906 98.242188 L 179.964844 231.050781 C 175.742188 236.210938 176.503906 243.820312 181.664062 248.042969 L 248.070312 302.375 C 251.308594 305.023438 255.6875 305.808594 259.644531 304.445312 C 263.601562 303.085938 266.570312 299.769531 267.492188 295.6875 Z M 309.75 108.546875 " fill-opacity="1" fill-rule="evenodd"/></svg>