<svg xmlns="http://www.w3.org/2000/svg" xmlns:xlink="http://www.w3.org/1999/xlink" width="500" zoomAndPan="magnify" viewBox="0 0 375 374.999991" height="500" preserveAspectRatio="xMidYMid meet" version="1.0"><defs><clipPath id="e2187e55bb"><path d="M 80.945312 102.785156 L 293.945312 102.785156 L 293.945312 261.035156 L 80.945312 261.035156 Z M 80.945312 102.785156 " clip-rule="nonzero"/></clipPath></defs><g clip-path="url(#e2187e55bb)"><path fill="#ffffff" d="M 288.109375 130.117188 C 286.140625 119.242188 276.753906 111.324219 265.859375 108.851562 C 249.558594 105.394531 219.390625 102.921875 186.746094 102.921875 C 154.125 102.921875 123.472656 105.394531 107.152344 108.851562 C 96.28125 111.324219 86.875 118.742188 84.902344 130.117188 C 82.914062 142.480469 80.945312 159.785156 80.945312 182.035156 C 80.945312 204.285156 82.914062 221.589844 85.386719 233.949219 C 87.375 244.824219 96.761719 252.742188 107.636719 255.214844 C 124.941406 258.671875 154.609375 261.144531 187.25 261.144531 C 219.890625 261.144531 249.558594 258.671875 266.863281 255.214844 C 277.738281 252.742188 287.125 245.328125 289.113281 233.949219 C 291.082031 221.589844 293.554688 203.78125 294.058594 182.035156 C 293.054688 159.785156 290.582031 142.480469 288.109375 130.117188 Z M 160.054688 216.644531 L 160.054688 147.421875 L 220.375 182.035156 Z M 160.054688 216.644531 " fill-opacity="1" fill-rule="nonzero"/></g></svg>