<svg xmlns="http://www.w3.org/2000/svg" xmlns:xlink="http://www.w3.org/1999/xlink" width="500" zoomAndPan="magnify" viewBox="0 0 375 374.999991" height="500" preserveAspectRatio="xMidYMid meet" version="1.0"><defs><clipPath id="cac04d7072"><path d="M 96 117 L 303.632812 117 L 303.632812 313 L 96 313 Z M 96 117 " clip-rule="nonzero"/></clipPath><clipPath id="6fce6cf967"><path d="M 71.132812 62 L 178 62 L 178 169 L 71.132812 169 Z M 71.132812 62 " clip-rule="nonzero"/></clipPath></defs><g clip-path="url(#cac04d7072)"><path fill="#ffffff" d="M 298.476562 229.667969 L 293.71875 229.667969 L 293.71875 197.644531 C 293.71875 194.789062 291.183594 192.253906 288.328125 192.253906 L 279.132812 192.253906 L 279.132812 165.300781 L 294.351562 165.300781 C 297.207031 165.300781 299.742188 162.765625 299.742188 159.910156 L 299.742188 122.496094 C 299.742188 119.640625 297.207031 117.105469 294.351562 117.105469 L 192.253906 117.105469 C 189.402344 117.105469 186.863281 119.640625 186.863281 122.496094 L 186.863281 154.519531 L 171.644531 154.519531 C 168.789062 154.519531 166.253906 157.058594 166.253906 159.910156 L 166.253906 183.058594 C 164.667969 183.058594 163.082031 182.742188 161.5 182.742188 C 125.667969 182.742188 96.816406 211.910156 96.816406 247.425781 C 96.816406 282.9375 125.984375 312.425781 161.816406 312.425781 C 186.546875 312.425781 208.109375 298.472656 218.890625 278.179688 L 298.476562 278.179688 C 301.328125 278.179688 303.867188 275.644531 303.867188 272.789062 L 303.867188 235.058594 C 303.867188 232.203125 301.328125 229.667969 298.476562 229.667969 Z M 282.9375 127.886719 L 288.964844 127.886719 L 288.964844 154.835938 L 282.9375 154.835938 Z M 151.351562 239.8125 L 159.914062 241.398438 L 174.179688 244.253906 L 175.132812 244.570312 L 175.765625 244.886719 C 184.960938 249.644531 187.179688 255.035156 187.179688 258.839844 L 187.179688 259.472656 C 187.179688 268.667969 178.621094 276.277344 167.839844 276.59375 L 167.839844 284.203125 L 157.058594 284.203125 L 157.058594 276.59375 L 155.789062 276.59375 C 145.011719 276.59375 136.132812 268.984375 136.132812 259.472656 L 136.132812 255.667969 L 146.914062 255.667969 L 146.914062 259.472656 C 146.914062 262.960938 151.035156 265.8125 156.109375 265.8125 L 167.523438 265.8125 C 172.277344 265.8125 176.402344 262.960938 176.402344 259.472656 L 176.402344 258.839844 C 176.402344 258.523438 175.449219 256.9375 171.644531 254.714844 L 156.742188 251.863281 L 149.449219 250.277344 L 148.179688 249.960938 L 147.546875 249.644531 C 140.253906 245.839844 136.449219 241.082031 136.449219 235.691406 L 136.449219 235.058594 C 136.449219 225.546875 145.328125 217.9375 156.109375 217.9375 L 157.375 217.9375 L 157.375 210.960938 L 168.15625 210.960938 L 168.15625 217.9375 C 178.9375 218.253906 187.5 225.546875 187.5 235.058594 L 176.71875 235.058594 C 176.71875 231.570312 172.597656 228.714844 167.523438 228.714844 L 156.109375 228.714844 C 151.351562 228.714844 146.914062 231.570312 146.914062 235.058594 L 146.914062 235.691406 C 146.914062 236.007812 147.863281 237.59375 151.351562 239.8125 Z M 191.304688 190.03125 C 186.863281 187.8125 182.109375 185.910156 177.351562 184.960938 L 177.351562 165.617188 L 191.304688 165.617188 Z M 239.5 127.886719 L 272.15625 127.886719 L 272.15625 154.835938 L 239.5 154.835938 Z M 268.671875 165.300781 L 268.671875 192.253906 L 264.546875 192.253906 L 264.546875 165.300781 Z M 197.644531 127.886719 L 210.011719 127.886719 L 210.011719 154.835938 L 197.644531 154.835938 Z M 210.328125 192.253906 L 202.085938 192.253906 L 202.085938 165.300781 L 210.328125 165.300781 Z M 219.839844 219.519531 C 217.621094 214.765625 214.765625 210.324219 211.597656 206.203125 L 211.597656 202.714844 L 219.839844 202.714844 Z M 220.472656 127.886719 L 228.71875 127.886719 L 228.71875 154.835938 L 220.472656 154.835938 Z M 220.792969 165.300781 L 253.449219 165.300781 L 253.449219 192.253906 L 220.792969 192.253906 Z M 229.988281 267.082031 L 223.328125 267.082031 C 225.230469 260.742188 226.5 254.398438 226.5 247.425781 C 226.5 244.886719 226.183594 242.667969 226.183594 240.132812 L 230.304688 240.132812 L 230.304688 267.082031 Z M 230.621094 203.035156 L 263.28125 203.035156 L 263.28125 229.984375 L 230.621094 229.984375 Z M 273.425781 267.082031 L 240.765625 267.082031 L 240.765625 240.132812 L 273.425781 240.132812 Z M 283.253906 229.667969 L 274.058594 229.667969 L 274.058594 202.714844 L 283.253906 202.714844 Z M 293.085938 267.082031 L 283.890625 267.082031 L 283.890625 240.132812 L 293.085938 240.132812 Z M 293.085938 267.082031 " fill-opacity="1" fill-rule="nonzero"/></g><g clip-path="url(#6fce6cf967)"><path fill="#ffffff" d="M 79.375 168.789062 L 165.304688 82.859375 L 165.304688 119.007812 L 177.351562 119.007812 L 177.351562 68.59375 C 177.351562 65.421875 174.816406 62.566406 171.328125 62.566406 L 120.914062 62.566406 L 120.914062 74.617188 L 157.058594 74.617188 L 71.132812 160.226562 Z M 79.375 168.789062 " fill-opacity="1" fill-rule="nonzero"/></g></svg>