<svg xmlns="http://www.w3.org/2000/svg" xmlns:xlink="http://www.w3.org/1999/xlink" width="500" zoomAndPan="magnify" viewBox="0 0 375 374.999991" height="500" preserveAspectRatio="xMidYMid meet" version="1.0"><defs><clipPath id="9bd939488c"><path d="M 262 147 L 315.460938 147 L 315.460938 238 L 262 238 Z M 262 147 " clip-rule="nonzero"/></clipPath><clipPath id="174f7f02f2"><path d="M 48.460938 147 L 103 147 L 103 238 L 48.460938 238 Z M 48.460938 147 " clip-rule="nonzero"/></clipPath><clipPath id="6b382ef45d"><path d="M 110 177 L 246 177 L 246 254.8125 L 110 254.8125 Z M 110 177 " clip-rule="nonzero"/></clipPath></defs><g clip-path="url(#9bd939488c)"><path fill="#ffffff" d="M 308.882812 147.753906 L 268.941406 147.753906 C 265.140625 147.753906 262.058594 150.835938 262.058594 154.660156 L 262.058594 230.960938 C 262.058594 234.757812 265.140625 237.867188 268.941406 237.867188 L 308.882812 237.867188 C 312.679688 237.867188 315.789062 234.78125 315.789062 230.960938 L 315.789062 154.660156 C 315.789062 150.835938 312.679688 147.753906 308.882812 147.753906 " fill-opacity="1" fill-rule="nonzero"/></g><g clip-path="url(#174f7f02f2)"><path fill="#ffffff" d="M 95.285156 147.753906 L 55.367188 147.753906 C 51.546875 147.753906 48.460938 150.835938 48.460938 154.660156 L 48.460938 230.960938 C 48.460938 234.757812 51.546875 237.867188 55.367188 237.867188 L 95.285156 237.867188 C 99.105469 237.867188 102.214844 234.78125 102.214844 230.960938 L 102.214844 154.660156 C 102.191406 150.835938 99.105469 147.753906 95.285156 147.753906 " fill-opacity="1" fill-rule="nonzero"/></g><path fill="#ffffff" d="M 158.511719 139.253906 L 117.949219 164.671875 L 117.738281 164.671875 L 117.902344 164.722656 C 104.089844 171.152344 121.296875 181.144531 121.296875 181.144531 C 145.648438 192.796875 174.507812 171.367188 174.507812 171.367188 C 178.992188 167.425781 184.261719 169.277344 184.261719 169.277344 L 243.402344 222.535156 C 243.902344 223.03125 244.398438 223.53125 244.804688 224.078125 L 245.230469 224.148438 C 245.515625 220.257812 249.621094 219.046875 253.726562 218.925781 L 253.726562 155.632812 C 241.03125 153.019531 217.488281 147.847656 210.628906 143.3125 C 210.628906 143.3125 174.886719 129.714844 158.511719 139.253906 " fill-opacity="1" fill-rule="nonzero"/><g clip-path="url(#6b382ef45d)"><path fill="#ffffff" d="M 180.652344 177.253906 C 180.105469 177.488281 136.816406 208.554688 110.523438 183.421875 L 110.523438 221.75 C 113.464844 222.652344 116.574219 223.980469 118.734375 225.808594 C 118.734375 225.808594 158.460938 250.824219 167.957031 253.386719 C 167.957031 253.386719 183.144531 259.488281 182.859375 246.601562 C 182.859375 246.601562 202.417969 257.992188 204.671875 241.402344 C 204.671875 241.402344 226.316406 255.382812 226.765625 234.96875 C 226.765625 234.96875 231.917969 237.675781 237.257812 238.007812 C 241.289062 238.292969 244.351562 235.847656 245.632812 232.691406 C 247.414062 233.570312 238.515625 229.179688 237.96875 228.917969 L 180.652344 177.253906 " fill-opacity="1" fill-rule="nonzero"/></g></svg>