<svg xmlns="http://www.w3.org/2000/svg" xmlns:xlink="http://www.w3.org/1999/xlink" width="500" zoomAndPan="magnify" viewBox="0 0 375 374.999991" height="500" preserveAspectRatio="xMidYMid meet" version="1.0"><defs><clipPath id="d369643bd3"><path d="M 146 96.21875 L 231 96.21875 L 231 181 L 146 181 Z M 146 96.21875 " clip-rule="nonzero"/></clipPath><clipPath id="4cf0e6ee8c"><path d="M 115.050781 179 L 262 179 L 262 266.757812 L 115.050781 266.757812 Z M 115.050781 179 " clip-rule="nonzero"/></clipPath><clipPath id="41979e5059"><path d="M 232.191406 165.230469 L 332.257812 165.230469 L 332.257812 236 L 232.191406 236 Z M 232.191406 165.230469 " clip-rule="nonzero"/></clipPath></defs><g clip-path="url(#d369643bd3)"><path fill="#ffffff" d="M 146.195312 138.617188 C 146.195312 115.308594 165.09375 96.410156 188.402344 96.410156 C 211.714844 96.410156 230.613281 115.308594 230.613281 138.617188 C 230.613281 161.929688 211.714844 180.828125 188.402344 180.828125 C 165.09375 180.828125 146.195312 161.929688 146.195312 138.617188 " fill-opacity="1" fill-rule="nonzero"/></g><g clip-path="url(#4cf0e6ee8c)"><path fill="#ffffff" d="M 260.945312 243.679688 L 254.929688 220.480469 C 250.023438 201.574219 236.78125 186.582031 219.761719 179.011719 C 211.105469 185.746094 200.226562 189.765625 188.402344 189.765625 C 176.585938 189.765625 165.707031 185.746094 157.042969 179.011719 C 140.023438 186.582031 126.785156 201.574219 121.882812 220.480469 L 115.863281 243.679688 C 112.832031 255.359375 121.648438 266.757812 133.71875 266.757812 L 243.09375 266.757812 C 255.160156 266.757812 263.976562 255.359375 260.945312 243.679688 " fill-opacity="1" fill-rule="nonzero"/></g><path fill="#ffffff" d="M 69.523438 133.214844 C 69.523438 114.554688 84.652344 99.429688 103.308594 99.429688 C 121.96875 99.429688 137.09375 114.554688 137.09375 133.214844 C 137.09375 151.871094 121.96875 167 103.308594 167 C 84.652344 167 69.523438 151.871094 69.523438 133.214844 " fill-opacity="1" fill-rule="nonzero"/><path fill="#ffffff" d="M 114.140625 220.167969 C 118.832031 202.085938 130.023438 187.050781 144.820312 177.304688 C 140.207031 172.328125 134.628906 168.308594 128.40625 165.542969 C 121.476562 170.933594 112.769531 174.152344 103.308594 174.152344 C 93.84375 174.152344 85.140625 170.933594 78.207031 165.542969 C 64.585938 171.601562 53.988281 183.601562 50.0625 198.734375 L 45.242188 217.304688 C 42.820312 226.652344 49.875 235.777344 59.535156 235.777344 L 110.089844 235.777344 L 114.140625 220.167969 " fill-opacity="1" fill-rule="nonzero"/><path fill="#ffffff" d="M 307.492188 133.214844 C 307.492188 114.554688 292.367188 99.429688 273.707031 99.429688 C 255.050781 99.429688 239.921875 114.554688 239.921875 133.214844 C 239.921875 151.871094 255.050781 167 273.707031 167 C 292.367188 167 307.492188 151.871094 307.492188 133.214844 " fill-opacity="1" fill-rule="nonzero"/><g clip-path="url(#41979e5059)"><path fill="#ffffff" d="M 262.875 220.167969 C 258.183594 202.085938 246.992188 187.050781 232.199219 177.304688 C 236.808594 172.328125 242.390625 168.308594 248.609375 165.542969 C 255.542969 170.933594 264.246094 174.152344 273.707031 174.152344 C 283.171875 174.152344 291.875 170.933594 298.808594 165.542969 C 312.433594 171.601562 323.027344 183.601562 326.953125 198.734375 L 331.773438 217.304688 C 334.199219 226.652344 327.140625 235.777344 317.480469 235.777344 L 266.925781 235.777344 L 262.875 220.167969 " fill-opacity="1" fill-rule="nonzero"/></g></svg>