<svg xmlns="http://www.w3.org/2000/svg" xmlns:xlink="http://www.w3.org/1999/xlink" width="500" zoomAndPan="magnify" viewBox="0 0 375 374.999991" height="500" preserveAspectRatio="xMidYMid meet" version="1.0"><defs><clipPath id="6e8c365895"><path d="M 165 62.003906 L 325 62.003906 L 325 234 L 165 234 Z M 165 62.003906 " clip-rule="nonzero"/></clipPath><clipPath id="e866c83c1a"><path d="M 74.921875 141 L 235 141 L 235 313 L 74.921875 313 Z M 74.921875 141 " clip-rule="nonzero"/></clipPath></defs><g clip-path="url(#6e8c365895)"><path fill="#ffffff" d="M 210.984375 233.859375 C 195.957031 233.859375 181.257812 228.371094 170.175781 217.273438 C 163.980469 211.09375 163.980469 201.09375 170.15625 194.917969 C 176.335938 188.738281 186.34375 188.738281 192.511719 194.90625 C 203.3125 205.6875 222.046875 204.519531 234.273438 192.269531 L 283.039062 143.503906 C 289.570312 137.007812 293.292969 128.515625 293.292969 120.207031 C 293.292969 115.246094 291.972656 108.046875 285.707031 101.761719 C 278.984375 95.03125 271.269531 93.921875 265.882812 94.195312 C 257.933594 94.554688 250.140625 98.183594 243.945312 104.378906 L 215.96875 132.335938 C 209.429688 125.800781 182.570312 121.003906 175.292969 128.289062 L 221.558594 82.035156 C 233.332031 70.261719 248.515625 63.367188 264.363281 62.605469 C 280.890625 61.847656 296.398438 67.792969 308.011719 79.40625 C 318.898438 90.273438 324.890625 104.769531 324.890625 120.214844 C 324.878906 136.851562 317.769531 153.496094 305.355469 165.871094 L 256.601562 214.625 C 243.855469 227.417969 227.242188 233.859375 210.984375 233.859375 Z M 210.984375 233.859375 " fill-opacity="1" fill-rule="nonzero"/></g><g clip-path="url(#e866c83c1a)"><path fill="#ffffff" d="M 188.863281 141.132812 C 203.875 141.132812 218.582031 146.617188 229.683594 157.71875 C 235.871094 163.894531 235.859375 173.894531 229.683594 180.070312 C 223.515625 186.25 213.503906 186.25 207.328125 180.070312 C 196.539062 169.304688 177.804688 170.480469 165.566406 182.707031 L 116.800781 231.472656 C 110.28125 237.972656 106.546875 246.464844 106.546875 254.773438 C 106.546875 259.714844 107.871094 266.933594 114.144531 273.21875 C 120.867188 279.929688 128.582031 281.058594 133.96875 280.804688 C 141.917969 280.425781 149.710938 276.796875 155.90625 270.601562 L 183.855469 242.660156 C 190.390625 249.1875 217.25 253.984375 224.539062 246.699219 L 178.269531 292.953125 C 166.511719 304.726562 151.316406 311.621094 135.476562 312.382812 C 118.941406 313.160156 103.433594 307.207031 91.808594 295.582031 C 80.925781 284.714844 74.941406 270.222656 74.941406 254.773438 C 74.949219 238.136719 82.050781 221.492188 94.464844 209.121094 L 143.222656 160.363281 C 155.984375 147.589844 172.621094 141.132812 188.863281 141.132812 Z M 188.863281 141.132812 " fill-opacity="1" fill-rule="nonzero"/></g></svg>