<svg xmlns="http://www.w3.org/2000/svg" xmlns:xlink="http://www.w3.org/1999/xlink" width="500" zoomAndPan="magnify" viewBox="0 0 375 374.999991" height="500" preserveAspectRatio="xMidYMid meet" version="1.0"><defs><clipPath id="497ba10056"><path d="M 53.113281 62.144531 L 311.863281 62.144531 L 311.863281 262 L 53.113281 262 Z M 53.113281 62.144531 " clip-rule="nonzero"/></clipPath><clipPath id="efc658a1e8"><path d="M 118 269 L 162 269 L 162 312.644531 L 118 312.644531 Z M 118 269 " clip-rule="nonzero"/></clipPath><clipPath id="c65c822d5f"><path d="M 241 269 L 285 269 L 285 312.644531 L 241 312.644531 Z M 241 269 " clip-rule="nonzero"/></clipPath></defs><g clip-path="url(#497ba10056)"><path fill="#ffffff" d="M 308.980469 103.613281 C 306.929688 101.128906 303.875 99.6875 300.648438 99.6875 L 116.253906 99.6875 L 107.378906 69.875 C 106.015625 65.289062 101.804688 62.148438 97.023438 62.148438 L 64.03125 62.148438 C 58.0625 62.148438 53.222656 66.988281 53.222656 72.957031 C 53.222656 78.925781 58.0625 83.765625 64.03125 83.765625 L 88.960938 83.765625 L 129.351562 219.433594 C 124.972656 227.460938 120.820312 238.953125 125.53125 248.578125 C 129.699219 257.101562 139.121094 261.425781 153.527344 261.425781 C 153.785156 261.425781 154.046875 261.414062 154.308594 261.386719 C 155.246094 261.300781 248.351562 252.765625 280.453125 254.585938 C 285.132812 254.835938 289.1875 251.253906 289.453125 246.546875 C 289.71875 241.84375 286.117188 237.8125 281.410156 237.550781 C 248.820312 235.710938 160.808594 243.65625 153.148438 244.359375 C 145.246094 244.308594 141.589844 242.570312 140.859375 241.082031 C 140.046875 239.425781 140.625 236.296875 141.996094 232.753906 C 142.222656 232.738281 142.449219 232.738281 142.6875 232.707031 L 283.742188 215.648438 C 288.402344 215.082031 292.167969 211.570312 293.054688 206.960938 L 311.257812 112.546875 C 311.867188 109.375 311.03125 106.101562 308.980469 103.613281 Z M 230.683594 156.039062 L 186.320312 156.039062 L 186.320312 121.304688 L 230.683594 121.304688 Z M 136.082031 166.277344 L 176.085938 166.277344 L 176.085938 206.898438 L 149.144531 210.15625 Z M 186.320312 166.277344 L 230.683594 166.277344 L 230.683594 200.292969 L 186.320312 205.65625 Z M 280.863281 156.039062 L 240.925781 156.039062 L 240.925781 121.304688 L 287.5625 121.304688 Z M 176.085938 121.304688 L 176.085938 156.039062 L 133.03125 156.039062 L 122.691406 121.304688 Z M 240.925781 199.050781 L 240.925781 166.277344 L 278.890625 166.277344 L 273.324219 195.132812 Z M 240.925781 199.050781 " fill-opacity="1" fill-rule="nonzero"/></g><g clip-path="url(#efc658a1e8)"><path fill="#ffffff" d="M 161.863281 291.347656 C 161.863281 292.054688 161.828125 292.761719 161.757812 293.464844 C 161.691406 294.167969 161.585938 294.867188 161.449219 295.5625 C 161.3125 296.253906 161.140625 296.941406 160.933594 297.617188 C 160.726562 298.292969 160.492188 298.957031 160.21875 299.613281 C 159.949219 300.265625 159.648438 300.902344 159.3125 301.527344 C 158.980469 302.152344 158.617188 302.757812 158.222656 303.34375 C 157.832031 303.933594 157.410156 304.5 156.960938 305.046875 C 156.511719 305.59375 156.039062 306.117188 155.539062 306.617188 C 155.039062 307.117188 154.515625 307.589844 153.96875 308.039062 C 153.421875 308.488281 152.855469 308.910156 152.265625 309.300781 C 151.679688 309.695312 151.074219 310.058594 150.449219 310.390625 C 149.824219 310.726562 149.1875 311.027344 148.535156 311.296875 C 147.878906 311.570312 147.214844 311.804688 146.539062 312.011719 C 145.863281 312.21875 145.175781 312.386719 144.484375 312.527344 C 143.789062 312.664062 143.089844 312.769531 142.386719 312.835938 C 141.683594 312.90625 140.976562 312.941406 140.269531 312.941406 C 139.5625 312.941406 138.855469 312.90625 138.152344 312.835938 C 137.449219 312.769531 136.75 312.664062 136.058594 312.527344 C 135.363281 312.386719 134.679688 312.21875 134 312.011719 C 133.324219 311.804688 132.660156 311.570312 132.007812 311.296875 C 131.351562 311.027344 130.714844 310.726562 130.089844 310.390625 C 129.46875 310.058594 128.863281 309.695312 128.273438 309.300781 C 127.683594 308.910156 127.117188 308.488281 126.570312 308.039062 C 126.023438 307.589844 125.5 307.117188 125 306.617188 C 124.5 306.117188 124.027344 305.59375 123.578125 305.046875 C 123.128906 304.5 122.707031 303.933594 122.316406 303.34375 C 121.921875 302.757812 121.558594 302.152344 121.226562 301.527344 C 120.894531 300.902344 120.589844 300.265625 120.320312 299.613281 C 120.050781 298.957031 119.8125 298.292969 119.605469 297.617188 C 119.402344 296.941406 119.230469 296.253906 119.089844 295.5625 C 118.953125 294.867188 118.851562 294.167969 118.78125 293.464844 C 118.710938 292.761719 118.675781 292.054688 118.675781 291.347656 C 118.675781 290.640625 118.710938 289.933594 118.78125 289.230469 C 118.851562 288.527344 118.953125 287.828125 119.089844 287.136719 C 119.230469 286.441406 119.402344 285.757812 119.605469 285.078125 C 119.8125 284.402344 120.050781 283.738281 120.320312 283.085938 C 120.589844 282.429688 120.894531 281.792969 121.226562 281.167969 C 121.558594 280.546875 121.921875 279.9375 122.316406 279.351562 C 122.707031 278.761719 123.128906 278.195312 123.578125 277.648438 C 124.027344 277.101562 124.5 276.578125 125 276.078125 C 125.5 275.578125 126.023438 275.105469 126.570312 274.65625 C 127.117188 274.207031 127.683594 273.785156 128.273438 273.394531 C 128.863281 273 129.46875 272.636719 130.089844 272.304688 C 130.714844 271.972656 131.351562 271.667969 132.007812 271.398438 C 132.660156 271.128906 133.324219 270.890625 134 270.683594 C 134.679688 270.480469 135.363281 270.308594 136.058594 270.167969 C 136.75 270.03125 137.449219 269.929688 138.152344 269.859375 C 138.855469 269.789062 139.5625 269.753906 140.269531 269.753906 C 140.976562 269.753906 141.683594 269.789062 142.386719 269.859375 C 143.089844 269.929688 143.789062 270.03125 144.484375 270.167969 C 145.175781 270.308594 145.863281 270.480469 146.539062 270.683594 C 147.214844 270.890625 147.878906 271.128906 148.535156 271.398438 C 149.1875 271.667969 149.824219 271.972656 150.449219 272.304688 C 151.074219 272.636719 151.679688 273 152.265625 273.394531 C 152.855469 273.785156 153.421875 274.207031 153.96875 274.65625 C 154.515625 275.105469 155.039062 275.578125 155.539062 276.078125 C 156.039062 276.578125 156.511719 277.101562 156.960938 277.648438 C 157.410156 278.195312 157.832031 278.761719 158.222656 279.351562 C 158.617188 279.9375 158.980469 280.546875 159.3125 281.167969 C 159.648438 281.792969 159.949219 282.429688 160.21875 283.085938 C 160.492188 283.738281 160.726562 284.402344 160.933594 285.078125 C 161.140625 285.757812 161.3125 286.441406 161.449219 287.136719 C 161.585938 287.828125 161.691406 288.527344 161.757812 289.230469 C 161.828125 289.933594 161.863281 290.640625 161.863281 291.347656 Z M 161.863281 291.347656 " fill-opacity="1" fill-rule="nonzero"/></g><g clip-path="url(#c65c822d5f)"><path fill="#ffffff" d="M 284.71875 291.347656 C 284.71875 292.054688 284.683594 292.761719 284.617188 293.464844 C 284.546875 294.167969 284.441406 294.867188 284.304688 295.5625 C 284.167969 296.253906 283.996094 296.941406 283.789062 297.617188 C 283.585938 298.292969 283.347656 298.957031 283.074219 299.613281 C 282.804688 300.265625 282.503906 300.902344 282.171875 301.527344 C 281.835938 302.152344 281.472656 302.757812 281.082031 303.34375 C 280.6875 303.933594 280.265625 304.5 279.816406 305.046875 C 279.371094 305.59375 278.894531 306.117188 278.394531 306.617188 C 277.894531 307.117188 277.371094 307.589844 276.824219 308.039062 C 276.277344 308.488281 275.710938 308.910156 275.121094 309.300781 C 274.535156 309.695312 273.929688 310.058594 273.304688 310.390625 C 272.679688 310.726562 272.042969 311.027344 271.390625 311.296875 C 270.734375 311.570312 270.070312 311.804688 269.394531 312.011719 C 268.71875 312.21875 268.03125 312.386719 267.339844 312.527344 C 266.644531 312.664062 265.945312 312.769531 265.242188 312.835938 C 264.539062 312.90625 263.832031 312.941406 263.125 312.941406 C 262.417969 312.941406 261.714844 312.90625 261.007812 312.835938 C 260.304688 312.769531 259.605469 312.664062 258.914062 312.527344 C 258.21875 312.386719 257.535156 312.21875 256.859375 312.011719 C 256.179688 311.804688 255.515625 311.570312 254.863281 311.296875 C 254.210938 311.027344 253.570312 310.726562 252.945312 310.390625 C 252.324219 310.058594 251.71875 309.695312 251.128906 309.300781 C 250.542969 308.910156 249.972656 308.488281 249.425781 308.039062 C 248.878906 307.589844 248.355469 307.117188 247.855469 306.617188 C 247.355469 306.117188 246.882812 305.59375 246.433594 305.046875 C 245.984375 304.5 245.566406 303.933594 245.171875 303.34375 C 244.777344 302.757812 244.414062 302.152344 244.082031 301.527344 C 243.75 300.902344 243.445312 300.265625 243.175781 299.613281 C 242.90625 298.957031 242.667969 298.292969 242.460938 297.617188 C 242.257812 296.941406 242.085938 296.253906 241.949219 295.5625 C 241.808594 294.867188 241.707031 294.167969 241.636719 293.464844 C 241.566406 292.761719 241.53125 292.054688 241.53125 291.347656 C 241.53125 290.640625 241.566406 289.933594 241.636719 289.230469 C 241.707031 288.527344 241.808594 287.828125 241.949219 287.136719 C 242.085938 286.441406 242.257812 285.757812 242.460938 285.078125 C 242.667969 284.402344 242.90625 283.738281 243.175781 283.085938 C 243.445312 282.429688 243.75 281.792969 244.082031 281.167969 C 244.414062 280.546875 244.777344 279.9375 245.171875 279.351562 C 245.566406 278.761719 245.984375 278.195312 246.433594 277.648438 C 246.882812 277.101562 247.355469 276.578125 247.855469 276.078125 C 248.355469 275.578125 248.878906 275.105469 249.425781 274.65625 C 249.972656 274.207031 250.542969 273.785156 251.128906 273.394531 C 251.71875 273 252.324219 272.636719 252.945312 272.304688 C 253.570312 271.972656 254.210938 271.667969 254.863281 271.398438 C 255.515625 271.128906 256.179688 270.890625 256.859375 270.683594 C 257.535156 270.480469 258.21875 270.308594 258.914062 270.167969 C 259.605469 270.03125 260.304688 269.929688 261.007812 269.859375 C 261.714844 269.789062 262.417969 269.753906 263.125 269.753906 C 263.832031 269.753906 264.539062 269.789062 265.242188 269.859375 C 265.945312 269.929688 266.644531 270.03125 267.339844 270.167969 C 268.03125 270.308594 268.71875 270.480469 269.394531 270.683594 C 270.070312 270.890625 270.734375 271.128906 271.390625 271.398438 C 272.042969 271.667969 272.679688 271.972656 273.304688 272.304688 C 273.929688 272.636719 274.535156 273 275.121094 273.394531 C 275.710938 273.785156 276.277344 274.207031 276.824219 274.65625 C 277.371094 275.105469 277.894531 275.578125 278.394531 276.078125 C 278.894531 276.578125 279.371094 277.101562 279.816406 277.648438 C 280.265625 278.195312 280.6875 278.761719 281.082031 279.351562 C 281.472656 279.9375 281.835938 280.546875 282.171875 281.167969 C 282.503906 281.792969 282.804688 282.429688 283.074219 283.085938 C 283.347656 283.738281 283.585938 284.402344 283.789062 285.078125 C 283.996094 285.757812 284.167969 286.441406 284.304688 287.136719 C 284.441406 287.828125 284.546875 288.527344 284.617188 289.230469 C 284.683594 289.933594 284.71875 290.640625 284.71875 291.347656 Z M 284.71875 291.347656 " fill-opacity="1" fill-rule="nonzero"/></g></svg>