<svg xmlns="http://www.w3.org/2000/svg" xmlns:xlink="http://www.w3.org/1999/xlink" width="500" zoomAndPan="magnify" viewBox="0 0 375 374.999991" height="500" preserveAspectRatio="xMidYMid meet" version="1.0"><defs><clipPath id="3c661055d5"><path d="M 121 73.078125 L 279 73.078125 L 279 136 L 121 136 Z M 121 73.078125 " clip-rule="nonzero"/></clipPath><clipPath id="100ce392f1"><path d="M 75.9375 117 L 171 117 L 171 286 L 75.9375 286 Z M 75.9375 117 " clip-rule="nonzero"/></clipPath><clipPath id="d26f73c04a"><path d="M 183 143.742188 L 299.066406 143.742188 L 299.066406 301.828125 L 183 301.828125 Z M 183 143.742188 " clip-rule="nonzero"/></clipPath></defs><g clip-path="url(#3c661055d5)"><path fill="#ffffff" d="M 232.730469 119.828125 L 245.464844 111.492188 C 230.144531 99.53125 211.070312 92.972656 191.480469 92.972656 C 171.417969 92.972656 151.835938 99.875 136.339844 112.40625 L 135.128906 113.386719 L 121.03125 99.289062 L 122.480469 98.074219 C 141.734375 81.972656 166.238281 73.105469 191.484375 73.105469 C 217.910156 73.105469 243.195312 82.6875 262.851562 100.117188 L 278.097656 90.140625 L 276.707031 135.839844 L 232.730469 119.828125 " fill-opacity="1" fill-rule="nonzero"/></g><g clip-path="url(#100ce392f1)"><path fill="#ffffff" d="M 165.5 285.117188 C 146.542969 280.433594 129.207031 270.644531 115.363281 256.800781 C 85.859375 227.292969 76.117188 183.09375 90.359375 143.84375 L 75.9375 133.949219 L 118.734375 117.859375 L 120.644531 164.621094 L 107.414062 155.542969 C 98.15625 186.589844 106.480469 219.808594 129.417969 242.746094 C 140.34375 253.671875 153.996094 261.53125 168.890625 265.472656 L 170.398438 265.871094 L 167.335938 285.570312 L 165.5 285.117188 " fill-opacity="1" fill-rule="nonzero"/></g><g clip-path="url(#d26f73c04a)"><path fill="#ffffff" d="M 183.078125 276.214844 L 220.175781 247.683594 L 220.390625 263.539062 C 232.929688 259.195312 244.070312 252.207031 253.53125 242.746094 C 276.988281 219.289062 285.167969 185.058594 274.878906 153.414062 L 274.394531 151.9375 L 292.589844 143.769531 L 293.203125 145.558594 C 299.664062 164.367188 300.808594 184.589844 296.515625 204.050781 C 292.101562 224.046875 282.097656 242.289062 267.585938 256.800781 C 254.550781 269.832031 238.351562 279.3125 220.667969 284.265625 L 220.90625 301.890625 L 183.078125 276.214844 " fill-opacity="1" fill-rule="nonzero"/></g></svg>