<svg xmlns="http://www.w3.org/2000/svg" xmlns:xlink="http://www.w3.org/1999/xlink" width="500" zoomAndPan="magnify" viewBox="0 0 375 374.999991" height="500" preserveAspectRatio="xMidYMid meet" version="1.0"><defs><clipPath id="20fd6db1cf"><path d="M 70.085938 128 L 239 128 L 239 337.5 L 70.085938 337.5 Z M 70.085938 128 " clip-rule="nonzero"/></clipPath><clipPath id="44b13dabe3"><path d="M 136 75 L 304.835938 75 L 304.835938 284 L 136 284 Z M 136 75 " clip-rule="nonzero"/></clipPath></defs><g clip-path="url(#20fd6db1cf)"><path fill="#0ffffa" d="M 222.265625 312.382812 C 222.265625 317.460938 218.132812 321.59375 213.054688 321.59375 L 95.242188 321.59375 C 90.164062 321.59375 86.03125 317.460938 86.03125 312.382812 L 86.03125 154 C 86.03125 148.921875 90.164062 144.792969 95.242188 144.792969 L 213.054688 144.792969 C 218.132812 144.792969 222.265625 148.921875 222.265625 154 Z M 213.054688 128.882812 L 95.242188 128.882812 C 81.390625 128.882812 70.125 140.152344 70.125 154 L 70.125 312.382812 C 70.125 326.230469 81.390625 337.5 95.242188 337.5 L 213.054688 337.5 C 226.902344 337.5 238.171875 326.230469 238.171875 312.382812 L 238.171875 154 C 238.171875 140.152344 226.902344 128.882812 213.054688 128.882812 " fill-opacity="1" fill-rule="nonzero"/></g><g clip-path="url(#44b13dabe3)"><path fill="#0ffffa" d="M 279.742188 75.003906 L 161.933594 75.003906 C 148.082031 75.003906 136.8125 86.273438 136.8125 100.121094 L 136.8125 108.15625 C 136.8125 112.550781 140.375 116.109375 144.765625 116.109375 C 149.160156 116.109375 152.722656 112.550781 152.722656 108.15625 L 152.722656 100.121094 C 152.722656 95.042969 156.855469 90.910156 161.933594 90.910156 L 279.742188 90.910156 C 284.820312 90.910156 288.953125 95.042969 288.953125 100.121094 L 288.953125 258.503906 C 288.953125 263.582031 284.820312 267.710938 279.742188 267.710938 L 253.648438 267.710938 C 249.253906 267.710938 245.695312 271.273438 245.695312 275.667969 C 245.695312 280.0625 249.253906 283.621094 253.648438 283.621094 L 279.742188 283.621094 C 293.59375 283.621094 304.859375 272.351562 304.859375 258.503906 L 304.859375 100.121094 C 304.859375 86.273438 293.59375 75.003906 279.742188 75.003906 " fill-opacity="1" fill-rule="nonzero"/></g></svg>